<svg xmlns="http://www.w3.org/2000/svg" viewBox="0 0 128 128">
    <path d="M64 54C38 54 28 72 32 92C35 108 48 118 64 118C80 118 93 108 96 92C100 72 90 54 64 54ZM96 38A10 13 0 1 1 76 38A10 13 0 1 1 96 38ZM74.5 27A6.5 9 0 1 1 61.5 27A6.5 9 0 1 1 74.5 27ZM59.5 24.5A5.5 7.5 0 1 1 48.5 24.5A5.5 7.5 0 1 1 59.5 24.5ZM47 28A5 7 0 1 1 37 28A5 7 0 1 1 47 28ZM36.5 36A4.5 6 0 1 1 27.5 36A4.5 6 0 1 1 36.5 36Z" />
    <style>
        path { fill: #000; }
        @media (prefers-color-scheme: dark) {
            path { fill: #FFF; }
        }
    </style>
</svg>
